HIERARCHY
ROOT Hips
{
 OFFSET 0.000000 0.000000 0.000000
 CHANNELS 6 Xposition Yposition Zposition Yrotation Xrotation Zrotation
 JOINT Chest
 {
  OFFSET 0.000000 9.585900 0.002600
  CHANNELS 3 Yrotation Xrotation Zrotation
  JOINT Chest2
  {
   OFFSET 0.000000 9.601200 -0.005300
   CHANNELS 3 Yrotation Xrotation Zrotation
   JOINT Chest3
   {
    OFFSET 0.000000 9.561800 0.000000
    CHANNELS 3 Yrotation Xrotation Zrotation
    JOINT Chest4
    {
     OFFSET 0.000000 9.552100 0.000000
     CHANNELS 3 Yrotation Xrotation Zrotation
     JOINT Neck
     {
      OFFSET 0.000000 14.453000 0.000000
      CHANNELS 3 Yrotation Xrotation Zrotation
      JOINT Head
      {
       OFFSET 0.000000 8.936500 -0.011300
       CHANNELS 3 Yrotation Xrotation Zrotation
       End Site
       {
        OFFSET 0.000000 17.073600 -0.006000
       }
      }
     }
     JOINT RightCollar
     {
      OFFSET -2.921100 9.558500 0.000000
      CHANNELS 3 Yrotation Xrotation Zrotation
      JOINT RightShoulder
      {
       OFFSET -13.519700 0.000000 0.000000
       CHANNELS 3 Yrotation Xrotation Zrotation
       JOINT RightElbow
       {
        OFFSET 0.000000 -29.696600 0.000000
        CHANNELS 3 Yrotation Xrotation Zrotation
        JOINT RightWrist
        {
         OFFSET 0.000000 -24.004700 0.000000
         CHANNELS 3 Yrotation Xrotation Zrotation
         End Site
         {
          OFFSET 0.000000 -17.728500 0.000000
         }
        }
       }
      }
     }
     JOINT LeftCollar
     {
      OFFSET 2.921100 9.558500 0.000000
      CHANNELS 3 Yrotation Xrotation Zrotation
      JOINT LeftShoulder
      {
       OFFSET 13.519700 0.000000 0.000000
       CHANNELS 3 Yrotation Xrotation Zrotation
       JOINT LeftElbow
       {
        OFFSET 0.000000 -29.696600 0.000000
        CHANNELS 3 Yrotation Xrotation Zrotation
        JOINT LeftWrist
        {
         OFFSET 0.000000 -24.004700 0.000000
         CHANNELS 3 Yrotation Xrotation Zrotation
         End Site
         {
          OFFSET 0.000000 -17.728500 0.000000
         }
        }
       }
      }
     }
    }
   }
  }
 }
 JOINT RightHip
 {
  OFFSET -7.771700 -0.012900 -0.001300
  CHANNELS 3 Yrotation Xrotation Zrotation
  JOINT RightKnee
  {
   OFFSET 0.000000 -40.869800 0.001200
   CHANNELS 3 Yrotation Xrotation Zrotation
   JOINT RightAnkle
   {
    OFFSET 0.000000 -39.717900 0.002100
    CHANNELS 3 Yrotation Xrotation Zrotation
    JOINT RightToe
    {
     OFFSET 0.000000 -4.965400 11.033500
     CHANNELS 3 Yrotation Xrotation Zrotation
     End Site
     {
      OFFSET 0.000000 -1.423100 5.872300
     }
    }
   }
  }
 }
 JOINT LeftHip
 {
  OFFSET 7.771700 -0.012900 -0.001300
  CHANNELS 3 Yrotation Xrotation Zrotation
  JOINT LeftKnee
  {
   OFFSET 0.000000 -40.869800 0.001200
   CHANNELS 3 Yrotation Xrotation Zrotation
   JOINT LeftAnkle
   {
    OFFSET 0.000000 -39.717900 0.002100
    CHANNELS 3 Yrotation Xrotation Zrotation
    JOINT LeftToe
    {
     OFFSET 0.000000 -4.965400 11.033500
     CHANNELS 3 Yrotation Xrotation Zrotation
     End Site
     {
      OFFSET 0.000000 -1.423100 5.872300
     }
    }
   }
  }
 }
}
MOTION
Frames: 16
Frame Time: 0.008333
-45.619162 52.895669 45.482248 -179.494302 -33.616112 -10.899923 -0.071207 13.989803 5.232615 0.005583 8.131014 2.126182 0.083820 10.210439 2.693194 0.009028 8.134233 2.127899 4.902817 20.137579 -5.640779 6.678529 -3.932046 -7.256498 0.757390 2.403132 -1.550215 -16.932274 -7.904125 5.134151 16.828866 -74.439173 -3.610994 11.900640 -3.290631 -6.608218 -9.469707 4.208078 -3.323605 8.849604 -2.601719 -2.735376 -67.264286 -83.517291 71.316978 14.607622 -10.305278 -0.891327 -15.449476 -32.394228 3.464348 31.317083 84.882780 27.751777 0.274715 -16.901295 2.503239 -0.336117 0.886758 -0.199099 -14.160181 -44.744875 14.742575 171.826113 78.819334 167.223065 -1.063522 -17.023016 1.571379 -0.635536 -1.905923 -0.257649
-45.602972 53.050243 45.482309 -179.432740 -33.582000 -10.937777 -0.122686 13.971482 5.240149 0.015294 8.148315 2.138219 0.085561 10.218395 2.699665 -0.003155 8.113839 2.121640 4.909386 20.162919 -5.566605 6.663947 -3.956078 -7.323439 0.756576 2.425969 -1.550785 -17.015063 -7.783079 5.170280 15.436542 -74.820033 -2.157542 12.110347 -1.906275 -6.021289 -9.459400 4.233620 -3.332970 8.999809 -2.589306 -2.838363 -64.947983 -84.648694 68.733883 14.981646 -9.914342 -2.055493 -15.541078 -32.407265 3.503137 31.052082 84.905996 27.481077 0.289163 -16.895639 2.482396 -0.325599 0.858440 -0.184633 -14.170653 -44.697835 14.767995 171.836150 78.929483 167.221835 -0.988180 -16.879141 1.573041 -0.631586 -2.022371 -0.263404
-45.584570 53.184829 45.483979 -179.421937 -33.556836 -10.972130 -0.108742 13.972449 5.288408 0.034287 8.183786 2.160107 0.064903 10.194718 2.688719 -0.008333 8.108923 2.124522 4.893641 20.142662 -5.556235 6.628214 -3.993348 -7.234922 0.742891 2.402713 -1.565765 -17.098808 -7.624999 5.190716 14.280220 -75.244920 -0.935609 12.271607 -0.483369 -5.392943 -9.461541 4.235286 -3.348928 9.128012 -2.583115 -2.886672 -59.670072 -86.025561 63.161585 15.406267 -9.479342 -3.219803 -15.583261 -32.417245 3.554436 30.942173 84.912335 27.378773 0.326797 -16.886415 2.472510 -0.367640 0.827387 -0.185844 -14.166603 -44.660555 14.825146 171.811313 79.016487 167.195644 -0.924012 -16.743748 1.580180 -0.666291 -2.135749 -0.278960
-45.574015 53.300368 45.486110 -179.380871 -33.528218 -10.991928 -0.106066 14.002525 5.325247 0.014333 8.163300 2.148768 0.054313 10.180259 2.683030 0.020323 8.173863 2.151958 4.851924 20.070852 -5.554905 6.593859 -4.046462 -7.190291 0.717113 2.364470 -1.593027 -17.196106 -7.491198 5.210005 13.585445 -75.715504 -0.164291 12.416513 0.928079 -4.758478 -9.488472 4.172268 -3.369766 9.260972 -2.573566 -2.900271 -45.840089 -87.485048 48.979879 15.832939 -9.006995 -4.313567 -15.630106 -32.442328 3.562093 30.822140 84.935535 27.270841 0.353547 -16.881797 2.457116 -0.380020 0.804499 -0.184407 -14.178534 -44.645538 14.832927 171.729699 79.078328 167.111655 -0.880539 -16.643944 1.574578 -0.704230 -2.216077 -0.282321
-45.566078 53.403304 45.484325 -179.361023 -33.539540 -11.004364 -0.106225 14.036816 5.341608 0.016279 8.169413 2.151216 0.070383 10.211835 2.696348 0.023994 8.184239 2.156131 4.818834 20.010959 -5.541148 6.561522 -4.108772 -7.162630 0.688200 2.346310 -1.613152 -17.289533 -7.352386 5.227869 13.487697 -76.228466 0.027634 12.583400 2.279627 -4.142613 -9.517111 4.106956 -3.379437 9.425675 -2.550135 -2.898754 -2.869176 -88.478409 5.589097 16.228917 -8.513925 -5.295262 -15.646407 -32.441047 3.568026 30.511253 84.983715 26.962284 0.412059 -16.871149 2.456209 -0.402972 0.770996 -0.189931 -14.161398 -44.598452 14.827703 171.709472 79.134474 167.097394 -0.846023 -16.557526 1.569064 -0.737828 -2.285507 -0.283196
-45.561924 53.488933 45.488714 -179.339949 -33.511962 -11.016060 -0.124573 14.019988 5.346741 0.017127 8.171524 2.151985 0.100369 10.266376 2.718385 0.023142 8.182056 2.155185 4.782910 19.949645 -5.552058 6.532527 -4.178726 -7.108275 0.655918 2.386515 -1.644768 -17.393307 -7.250589 5.271705 14.005744 -76.778886 -0.371742 12.812075 3.528516 -3.551782 -9.522723 4.081558 -3.396302 9.579080 -2.562541 -2.878122 51.486596 -87.907728 -49.211127 16.588750 -8.001505 -6.157960 -15.676310 -32.475474 3.578564 30.550630 85.003268 27.005397 0.425963 -16.893598 2.452191 -0.412441 0.784339 -0.193183 -14.116652 -44.597787 14.836718 171.694329 79.187528 167.095522 -0.898365 -16.541104 1.593657 -0.707067 -2.287970 -0.274227
-45.562189 53.563826 45.492105 -179.318565 -33.497118 -11.023349 -0.130047 14.035681 5.362038 0.023061 8.181486 2.155246 0.109871 10.283291 2.722608 0.009815 8.158116 2.149329 4.774977 19.921075 -5.523006 6.496175 -4.254389 -7.084135 0.638968 2.377256 -1.660975 -17.504989 -7.069128 5.280542 15.076567 -77.360318 -1.291840 13.127564 4.643785 -2.981620 -9.486841 4.120769 -3.422895 9.703178 -2.610626 -2.841951 71.497290 -86.592315 -69.648253 16.919255 -7.468193 -6.937848 -15.698764 -32.506784 3.578549 30.478655 85.043118 26.933673 0.455532 -16.919974 2.449388 -0.429187 0.793337 -0.191684 -14.120085 -44.604715 14.837542 171.565966 79.205502 166.961215 -0.904521 -16.485272 1.605242 -0.715019 -2.333948 -0.281308
-45.568819 53.629139 45.494736 -179.293566 -33.491030 -11.015186 -0.121973 14.085066 5.381311 0.010182 8.166983 2.141639 0.104341 10.271517 2.715533 0.046022 8.220837 2.164135 4.729677 19.834006 -5.510010 6.462309 -4.332100 -7.061451 0.589669 2.307097 -1.688003 -17.625316 -6.883677 5.288634 16.622765 -77.959729 -2.660950 13.518288 5.597072 -2.412937 -9.505289 4.060995 -3.429630 9.837443 -2.619563 -2.816807 79.681757 -85.284111 -78.196774 17.233133 -6.923716 -7.705357 -15.701523 -32.538294 3.560985 30.386627 85.090605 26.821822 0.494836 -16.958406 2.479352 -0.462989 0.809443 -0.202655 -14.108857 -44.610020 14.807314 171.447535 79.220684 166.834206 -0.918551 -16.443906 1.617991 -0.703387 -2.370335 -0.290908
-45.575158 53.686655 45.498397 -179.270852 -33.486112 -11.026608 -0.131450 14.096809 5.391170 0.050027 8.227358 2.167171 0.105078 10.273020 2.712723 0.057284 8.238734 2.167996 4.704756 19.757150 -5.464990 6.408748 -4.415912 -7.063800 0.530574 2.249883 -1.734747 -17.740030 -6.709586 5.319645 18.539922 -78.568312 -4.398206 13.951604 6.364639 -1.811987 -9.530932 3.998310 -3.427586 9.915984 -2.634845 -2.801470 84.204923 -84.144351 -82.966872 17.532672 -6.377382 -8.514177 -15.716328 -32.560233 3.563338 30.419392 85.125123 26.838116 0.521747 -17.008249 2.503615 -0.494181 0.842730 -0.214095 -14.106587 -44.610601 14.802414 171.370821 79.235823 166.757072 -0.944732 -16.436790 1.629930 -0.693818 -2.368899 -0.289517
-45.582545 53.737428 45.503025 -179.247100 -33.481471 -11.048646 -0.138238 14.109511 5.412044 0.070956 8.258557 2.177072 0.128784 10.308901 2.719360 0.056892 8.237203 2.167066 4.677970 19.690134 -5.448787 6.376899 -4.463148 -7.059201 0.460546 2.238906 -1.811027 -17.811875 -6.558368 5.386830 20.688013 -79.188418 -6.392544 14.399204 6.945545 -1.150628 -9.546417 3.952939 -3.419026 9.915425 -2.665044 -2.797924 87.278603 -83.202753 -86.164331 17.799479 -5.826501 -9.369586 -15.738473 -32.579464 3.583767 30.464996 85.158485 26.861850 0.534635 -17.062895 2.513310 -0.516443 0.882433 -0.206358 -14.124307 -44.615806 14.812094 171.295589 79.240802 166.681685 -0.968701 -16.428929 1.637665 -0.683933 -2.367985 -0.288065
-45.593371 53.781651 45.509228 -179.223711 -33.471606 -11.062862 -0.109106 14.170086 5.450988 0.058563 8.238956 2.165363 0.141412 10.327019 2.721664 0.041474 8.207641 2.166777 4.666018 19.656110 -5.440407 6.359560 -4.555274 -7.018728 0.432688 2.205338 -1.822451 -17.849758 -6.369393 5.360240 22.922249 -79.828277 -8.517973 14.844024 7.362327 -0.402723 -9.536755 3.950704 -3.413078 10.036654 -2.628680 -2.772014 90.132355 -82.399648 -89.240805 18.016658 -5.260352 -10.256020 -15.762134 -32.609783 3.602202 30.531143 85.195071 26.894499 0.542344 -17.119739 2.539498 -0.534595 0.924303 -0.207915 -14.143771 -44.632500 14.811988 171.207457 79.243216 166.591205 -0.992579 -16.421997 1.643609 -0.673031 -2.362852 -0.285699
-45.611689 53.816149 45.522031 -179.161383 -33.411054 -11.062738 -0.152210 14.158133 5.435124 0.076484 8.266529 2.169945 0.121347 10.293887 2.715365 0.085810 8.283899 2.170796 4.617898 19.550592 -5.435721 6.351938 -4.654330 -6.991234 0.335300 2.169776 -1.918090 -17.843689 -6.226618 5.419719 25.155866 -80.492424 -10.677646 15.272499 7.642773 0.459296 -9.578719 3.858583 -3.390120 10.106901 -2.580002 -2.748951 92.748541 -81.742991 -91.980466 18.179919 -4.678893 -11.155352 -15.810695 -32.696606 3.586129 30.682523 85.232848 27.018733 0.524353 -17.187301 2.557253 -0.525398 0.978474 -0.198146 -14.196031 -44.707566 14.775919 171.083999 79.248656 166.464572 -1.038105 -16.429684 1.638231 -0.636341 -2.325849 -0.271094
-45.625088 53.851353 45.531233 -179.138007 -33.395776 -11.078684 -0.142129 14.186047 5.459598 0.066479 8.252971 2.163735 0.125831 10.301234 2.715705 0.130392 8.366070 2.175785 4.585915 19.444822 -5.427012 6.336372 -4.749001 -6.991619 0.242342 2.109566 -1.993368 -17.847898 -6.077173 5.442172 27.349267 -81.180155 -12.804850 15.673072 7.817412 1.441571 -9.596982 3.793827 -3.360085 10.152205 -2.570538 -2.729281 95.186800 -81.203744 -94.512187 18.295759 -4.085671 -12.052013 -15.837184 -32.736470 3.608038 30.739155 85.271670 27.038881 0.533328 -17.236497 2.587450 -0.541402 1.015328 -0.202359 -14.242385 -44.735595 14.783121 170.995314 79.244973 166.367983 -1.049004 -16.417094 1.637001 -0.627579 -2.319896 -0.270173
-45.640815 53.883044 45.541937 -179.111831 -33.376546 -11.086304 -0.152774 14.191040 5.463441 0.072049 8.261282 2.165206 0.157189 10.351893 2.723613 0.129303 8.387796 2.177351 4.610272 19.368078 -5.429482 6.291222 -4.870887 -6.995934 0.186947 2.028561 -2.024359 -17.896398 -5.911849 5.406674 29.486144 -81.884454 -14.867602 16.037743 7.918865 2.531407 -9.604632 3.733260 -3.333259 10.247445 -2.553322 -2.697194 97.482614 -80.767890 -96.917342 18.384234 -3.483662 -12.936320 -15.850463 -32.787212 3.621196 30.715917 85.319753 26.976877 0.542068 -17.276840 2.633740 -0.554236 1.040675 -0.215233 -14.286271 -44.771507 14.777424 170.889419 79.241459 166.253751 -1.064283 -16.402203 1.633526 -0.614790 -2.313965 -0.267366
-45.656382 53.914168 45.551525 -179.087466 -33.374158 -11.095962 -0.159032 14.212259 5.469404 0.092938 8.299999 2.172905 0.166377 10.373826 2.725458 0.129823 8.415580 2.182934 4.605096 19.258371 -5.455777 6.291654 -4.994297 -7.023367 0.122718 1.969150 -2.103183 -17.977994 -5.767856 5.424488 31.589592 -82.595181 -16.882816 16.365269 7.975255 3.713742 -9.630225 3.632606 -3.315078 10.417977 -2.512131 -2.645119 99.649558 -80.424433 -99.222685 18.455182 -2.876057 -13.814855 -15.848766 -32.821649 3.614767 30.827725 85.359311 27.077224 0.532932 -17.309934 2.662602 -0.550907 1.065069 -0.216099 -14.312911 -44.787064 14.767447 170.813344 79.239835 166.171056 -1.077975 -16.403966 1.635005 -0.604078 -2.295868 -0.264178
-45.670016 53.944384 45.561862 -179.074309 -33.376343 -11.111063 -0.120204 14.295847 5.514411 0.082036 8.282469 2.162160 0.196742 10.473400 2.742905 0.111154 8.365334 2.180788 4.603278 19.132229 -5.501900 6.301104 -5.134502 -7.074056 0.071111 1.886101 -2.172221 -18.110868 -5.620874 5.425559 33.674051 -83.307032 -18.860301 16.659292 8.012354 4.958971 -9.617710 3.618119 -3.275573 10.587924 -2.558949 -2.625905 101.744092 -80.155260 -101.477262 18.496100 -2.272060 -14.713120 -15.838513 -32.850718 3.621354 30.883482 85.399086 27.125296 0.526840 -17.332948 2.683077 -0.546874 1.080934 -0.213165 -14.358292 -44.799318 14.781901 170.742450 79.232412 166.086431 -1.082783 -16.390638 1.633037 -0.600593 -2.293835 -0.264322
